<svg width="122" height="94" viewBox="0 0 122 94" fill="none" xmlns="http://www.w3.org/2000/svg">
<path d="M54.6076 58.7089V34.3418L25.3671 5.98734V86.1772M12.519 86.1772V30.3544L40.8734 2L71 30.5V87.0633H47.962M12.519 86.1772L1 92.8228M12.519 86.1772H25.3671M25.3671 86.1772V87.0633H36M36 87.0633V66.2405H47.962V87.0633M36 87.0633H47.962" stroke="black" stroke-width="1.87"/>
<path d="M70.2976 88V30.6H89.7316C94.4329 30.6 98.4509 31.3653 101.786 32.896C105.175 34.372 107.772 36.504 109.576 39.292C111.38 42.08 112.282 45.4693 112.282 49.46C112.282 53.396 111.38 56.7853 109.576 59.628C107.772 62.416 105.175 64.5753 101.786 66.106C98.4509 67.582 94.4329 68.32 89.7316 68.32H71.1996L71.9376 67.582V88H70.2976ZM71.9376 67.418L71.1996 66.762H89.8956C96.6196 66.762 101.758 65.2587 105.312 62.252C108.865 59.1907 110.642 54.9267 110.642 49.46C110.642 43.9387 108.865 39.6747 105.312 36.668C101.758 33.6613 96.6196 32.158 89.8956 32.158H71.1996L71.9376 31.502V67.418Z" fill="black"/>
<path d="M71.6924 88L95.7424 36.2H97.2224L121.272 88H119.57L96.1124 37.384H96.8524L73.3944 88H71.6924ZM79.6104 72.386L80.3504 70.98H112.54L113.28 72.386H79.6104Z" fill="black"/>
</svg>
